<svg width="500" height="678" viewBox="0 0 500 678" fill="none" xmlns="http://www.w3.org/2000/svg">
<circle cx="250" cy="271" r="240" fill="#FFDF8C" stroke="black" stroke-width="20"/>
<circle cx="250" cy="271" r="165" fill="#FFDF8C" stroke="black" stroke-width="20"/>
<path d="M240.827 46.2552C244.31 38.2301 255.69 38.2301 259.173 46.2552L420.083 417.019C422.949 423.623 418.108 431 410.909 431H89.0906C81.8918 431 77.0513 423.623 79.9172 417.019L240.827 46.2552Z" fill="#FFDF8C" stroke="black" stroke-width="20"/>
<rect x="27" y="431" width="443" height="71" rx="35.5" fill="#FFDF8C" stroke="black" stroke-width="20"/>
<circle cx="212" cy="244" r="35" fill="black"/>
<circle cx="228.917" cy="239.917" r="8.75" fill="#FFDF8C"/>
<circle cx="203.25" cy="224.75" r="8.75" fill="#FFDF8C"/>
<circle cx="202.083" cy="257.417" r="8.75" fill="#FFDF8C"/>
<circle cx="302" cy="279" r="35" fill="black"/>
<circle cx="318.917" cy="274.917" r="8.75" fill="#FFDF8C"/>
<circle cx="293.25" cy="259.75" r="8.75" fill="#FFDF8C"/>
<circle cx="292.083" cy="292.417" r="8.75" fill="#FFDF8C"/>
<circle cx="250" cy="159" r="35" fill="black"/>
<circle cx="266.917" cy="154.917" r="8.75" fill="#FFDF8C"/>
<circle cx="241.25" cy="139.75" r="8.75" fill="#FFDF8C"/>
<circle cx="240.083" cy="172.417" r="8.75" fill="#FFDF8C"/>
<circle cx="180" cy="349" r="35" fill="black"/>
<circle cx="196.917" cy="344.917" r="8.75" fill="#FFDF8C"/>
<circle cx="171.25" cy="329.75" r="8.75" fill="#FFDF8C"/>
<circle cx="170.083" cy="362.417" r="8.75" fill="#FFDF8C"/>
<circle cx="282" cy="373" r="35" fill="black"/>
<circle cx="298.917" cy="368.917" r="8.75" fill="#FFDF8C"/>
<circle cx="273.25" cy="353.75" r="8.75" fill="#FFDF8C"/>
<circle cx="272.083" cy="386.417" r="8.75" fill="#FFDF8C"/>
<rect x="59" y="495" width="47" height="131" rx="23.5" fill="black"/>
<rect x="143" y="495" width="47" height="183" rx="23.5" fill="black"/>
<rect x="311" y="495" width="47" height="140" rx="23.5" fill="black"/>
<rect x="227" y="495" width="47" height="93" rx="23.5" fill="black"/>
<rect x="395" y="495" width="47" height="105" rx="23.5" fill="black"/>
<path d="M149 523C149 536.807 137.807 523 124 523C110.193 523 99 536.807 99 523C99 509.193 110.193 498 124 498C137.807 498 149 509.193 149 523Z" fill="black"/>
<path d="M319 523C319 536.807 307.807 523 294 523C280.193 523 269 536.807 269 523C269 509.193 280.193 498 294 498C307.807 498 319 509.193 319 523Z" fill="black"/>
<path d="M402 523C402 536.807 390.807 523 377 523C363.193 523 352 536.807 352 523C352 509.193 363.193 498 377 498C390.807 498 402 509.193 402 523Z" fill="black"/>
<path d="M236 520C236 533.807 224.807 520 211 520C197.193 520 186 533.807 186 520C186 506.193 197.193 495 211 495C224.807 495 236 506.193 236 520Z" fill="black"/>
</svg>
